<?xml version="1.0" standalone="no"?>
<!DOCTYPE svg PUBLIC "-//W3C//DTD SVG 20010904//EN"
 "http://www.w3.org/TR/2001/REC-SVG-20010904/DTD/svg10.dtd">
<svg version="1.0" xmlns="http://www.w3.org/2000/svg"
 width="512.000000pt" height="512.000000pt" viewBox="0 0 512.000000 512.000000"
 preserveAspectRatio="xMidYMid meet">
<metadata>
Created by potrace 1.14, written by Peter Selinger 2001-2017
</metadata>
<g transform="translate(0.000000,512.000000) scale(0.100000,-0.100000)"
fill="#000000" stroke="none">
<path d="M770 5100 c-228 -48 -403 -153 -551 -331 -88 -105 -159 -242 -188
-365 -6 -27 -15 -60 -19 -74 -3 -14 -8 -799 -9 -1745 -2 -1873 -5 -1784 53
-1949 75 -216 239 -408 445 -520 80 -44 157 -71 269 -96 82 -19 151 -19 1785
-19 1827 0 1754 -2 1915 50 36 12 106 43 155 70 244 134 413 361 474 641 20
92 20 114 18 1828 l-2 1735 -28 90 c-101 324 -314 549 -617 655 -145 50 -107
49 -1920 49 -1600 -1 -1700 -2 -1780 -19z m3590 -308 c107 -39 191 -91 265
-166 79 -81 124 -152 163 -258 l27 -73 2 -1705 c3 -1908 8 -1770 -70 -1930
-32 -66 -58 -101 -122 -165 -104 -104 -209 -159 -350 -184 -40 -8 -585 -11
-1725 -10 -1855 1 -1736 -4 -1889 71 -63 31 -102 60 -160 117 -85 85 -131 157
-170 264 l-26 72 -2 1705 c-3 1860 -6 1765 52 1897 87 197 285 351 495 386 14
2 795 4 1735 3 l1710 -1 65 -23z"/>
<path d="M1055 2696 c-117 -52 -116 -223 1 -272 49 -21 2958 -21 3007 0 62 26
101 97 90 162 -8 41 -50 94 -89 110 -49 20 -2963 20 -3009 0z"/>
</g>
</svg>
